<svg xmlns="http://www.w3.org/2000/svg" width="3000" height="6000" viewBox="0 0 3000 6000">
  <path id="EMBLEM_SHAPE" fill="#ffffff" fill-rule="evenodd" stroke="none" d="M1390,2540l39-1924h1l38,1924a803,803,0,0,1,417-449,3975.291,3975.291,0,0,1-351-908,3961.562,3961.562,0,0,1-104-618h0c-17.72,209.828-53.07,417.044-104,621a3936.542,3936.542,0,0,1-351,908,799.245,799.245,0,0,1,415,446m0,728,39,1924h1l38-1924a803,803,0,0,0,417,449,3975.291,3975.291,0,0,0-351,908c-50.95,202.98-86.63,409.18-105,618h0a3923.048,3923.048,0,0,0-103-621,3936.542,3936.542,0,0,0-351-908,799.245,799.245,0,0,0,415-446m1024.95-965.52c-329.39,0-596.41,266.4-596.41,595.01s267.02,595.02,596.41,595.02a600.092,600.092,0,0,0,133.06-14.87A691.07,691.07,0,0,1,2169.13,3590c-382.8,0-693.13-309.6-693.13-691.5S1786.33,2207,2169.13,2207a691.056,691.056,0,0,1,374.14,109.29A600.037,600.037,0,0,0,2414.95,2302.48Zm-1967.9,0c329.391,0,596.412,266.4,596.412,595.01s-267.021,595.02-596.412,595.02A600.01,600.01,0,0,1,314,3477.64,691.041,691.041,0,0,0,692.868,3590c382.8,0,693.132-309.6,693.132-691.5S1075.67,2207,692.868,2207a691.065,691.065,0,0,0-374.136,109.29A599.985,599.985,0,0,1,447.048,2302.48ZM1935,2809a88,88,0,1,1-88,88A88,88,0,0,1,1935,2809Zm38-187a69,69,0,1,1-69,69A69,69,0,0,1,1973,2622Zm78-130a48,48,0,1,1-48,48A48,48,0,0,1,2051,2492Zm98.5-73a34.5,34.5,0,1,1-34.5,34.5A34.5,34.5,0,0,1,2149.5,2419Zm85.5-33a20,20,0,1,1-20,20A19.994,19.994,0,0,1,2235,2386Zm71.5-25a15.5,15.5,0,1,1-15.5,15.5A15.5,15.5,0,0,1,2306.5,2361Zm57.5-12a11,11,0,1,1-11,11A11,11,0,0,1,2364,2349Zm59-6a5,5,0,1,1-5,5A5,5,0,0,1,2423,2343Zm-450,829a69,69,0,1,0-69-69A69,69,0,0,0,1973,3172Zm78,130a48,48,0,1,0-48-48A48,48,0,0,0,2051,3302Zm98.5,73a34.5,34.5,0,1,0-34.5-34.5A34.5,34.5,0,0,0,2149.5,3375Zm85.5,33a20,20,0,1,0-20-20A19.994,19.994,0,0,0,2235,3408Zm71.5,25a15.5,15.5,0,1,0-15.5-15.5A15.5,15.5,0,0,0,2306.5,3433Zm57.5,12a11,11,0,1,0-11-11A11,11,0,0,0,2364,3445Zm59,6a5,5,0,1,0-5-5A5,5,0,0,0,2423,3451ZM923,2811a88,88,0,1,1-88,88A88,88,0,0,1,923,2811Zm-38-187a69,69,0,1,0,69,69A69,69,0,0,0,885,2624Zm-78-130a48,48,0,1,0,48,48A48,48,0,0,0,807,2494Zm-98.5-73a34.5,34.5,0,1,0,34.5,34.5A34.5,34.5,0,0,0,708.5,2421ZM623,2388a20,20,0,1,0,20,20A20,20,0,0,0,623,2388Zm-71.5-25a15.5,15.5,0,1,0,15.5,15.5A15.5,15.5,0,0,0,551.5,2363ZM494,2351a11,11,0,1,0,11,11A11,11,0,0,0,494,2351Zm-59-6a5,5,0,1,0,5,5A5,5,0,0,0,435,2345Zm450,829a69,69,0,1,1,69-69A69,69,0,0,1,885,3174Zm-78,130a48,48,0,1,1,48-48A48,48,0,0,1,807,3304Zm-98.5,73a34.5,34.5,0,1,1,34.5-34.5A34.5,34.5,0,0,1,708.5,3377ZM623,3410a20,20,0,1,1,20-20A20,20,0,0,1,623,3410Zm-71.5,25a15.5,15.5,0,1,1,15.5-15.5A15.5,15.5,0,0,1,551.5,3435ZM494,3447a11,11,0,1,1,11-11A11,11,0,0,1,494,3447Zm-59,6a5,5,0,1,1,5-5A5,5,0,0,1,435,3453Z"/>
</svg>
